<?xml version="1.0" ?><!DOCTYPE svg  PUBLIC '-//W3C//DTD SVG 1.1//EN'  'http://www.w3.org/Graphics/SVG/1.1/DTD/svg11.dtd'><svg enable-background="new 0 0 66 66" id="Layer_1" version="1.1" viewBox="0 0 66 66" xml:space="preserve" xmlns="http://www.w3.org/2000/svg" xmlns:xlink="http://www.w3.org/1999/xlink"><g><g><rect fill="#27A2DB" height="64" width="64" x="1" y="1"/><rect fill="#1C75A1" height="8" width="64" x="1" y="57"/></g><g><path d="M39.4,50.5h-4.7H30c0,0,0-2.8,0-4.7c-6.4,1.4-8.2-3.5-8.2-3.5c-1.2-2.3-2.3-3.5-2.3-3.5    c-2.3-1.4,0-1.2,0-1.2c2.3,0,3.5,2.3,3.5,2.3c2,3.5,5.7,2.9,7,2.3c0-1.2,0.5-2.9,1.2-3.5c-5.1-0.6-9.3-3.5-9.3-9.3s1.2-7,2.3-8.2    c-0.2-0.6-1.2-2.7,0-5.8c0,0,2.3,0,4.6,3.5c1.2-1.2,4.7-1.2,5.8-1.2c1.2,0,4.7,0,5.8,1.2c2.3-3.5,4.6-3.5,4.6-3.5    c1.2,3.1,0.3,5.3,0,5.8c1.2,1.2,2.3,2.3,2.3,8.2s-4.2,8.8-9.3,9.3c0.7,0.6,1.2,2.6,1.2,3.5L39.4,50.5L39.4,50.5z" fill="#FFFFFF" id="Cat_2_"/></g></g></svg>